<mxfile host="app.diagrams.net" modified="2023-04-25T11:51:59.318Z" agent="Mozilla/5.0 (Windows NT 10.0; Win64; x64) AppleWebKit/537.36 (KHTML, like Gecko) Chrome/112.0.0.0 Safari/537.36" etag="c35GmINHPXQ-q-iB6rpV" version="21.2.1" type="device">
  <diagram name="Page-1" id="njhEHM5acDZ1M3RtEC45">
    <mxGraphModel dx="765" dy="421" grid="1" gridSize="10" guides="1" tooltips="1" connect="1" arrows="1" fold="1" page="1" pageScale="1" pageWidth="827" pageHeight="1169" math="0" shadow="0">
      <root>
        <mxCell id="0" />
        <mxCell id="1" parent="0" />
        <mxCell id="J2l5HdpZWElJUbfmTTPZ-6" style="edgeStyle=orthogonalEdgeStyle;rounded=0;orthogonalLoop=1;jettySize=auto;html=1;entryX=0.5;entryY=0;entryDx=0;entryDy=0;" edge="1" parent="1" source="J2l5HdpZWElJUbfmTTPZ-1" target="J2l5HdpZWElJUbfmTTPZ-2">
          <mxGeometry relative="1" as="geometry" />
        </mxCell>
        <mxCell id="J2l5HdpZWElJUbfmTTPZ-1" value="start" style="ellipse;whiteSpace=wrap;html=1;" vertex="1" parent="1">
          <mxGeometry x="350" y="40" width="120" height="80" as="geometry" />
        </mxCell>
        <mxCell id="J2l5HdpZWElJUbfmTTPZ-7" style="edgeStyle=orthogonalEdgeStyle;rounded=0;orthogonalLoop=1;jettySize=auto;html=1;entryX=0.5;entryY=0;entryDx=0;entryDy=0;" edge="1" parent="1" source="J2l5HdpZWElJUbfmTTPZ-2" target="J2l5HdpZWElJUbfmTTPZ-3">
          <mxGeometry relative="1" as="geometry" />
        </mxCell>
        <mxCell id="J2l5HdpZWElJUbfmTTPZ-2" value="print login / create account" style="shape=parallelogram;perimeter=parallelogramPerimeter;whiteSpace=wrap;html=1;fixedSize=1;" vertex="1" parent="1">
          <mxGeometry x="350" y="140" width="120" height="60" as="geometry" />
        </mxCell>
        <mxCell id="J2l5HdpZWElJUbfmTTPZ-8" value="yes" style="edgeStyle=orthogonalEdgeStyle;rounded=0;orthogonalLoop=1;jettySize=auto;html=1;" edge="1" parent="1" source="J2l5HdpZWElJUbfmTTPZ-3">
          <mxGeometry relative="1" as="geometry">
            <mxPoint x="410" y="340" as="targetPoint" />
          </mxGeometry>
        </mxCell>
        <mxCell id="J2l5HdpZWElJUbfmTTPZ-14" value="no" style="edgeStyle=orthogonalEdgeStyle;rounded=0;orthogonalLoop=1;jettySize=auto;html=1;" edge="1" parent="1" source="J2l5HdpZWElJUbfmTTPZ-3" target="J2l5HdpZWElJUbfmTTPZ-13">
          <mxGeometry relative="1" as="geometry" />
        </mxCell>
        <mxCell id="J2l5HdpZWElJUbfmTTPZ-3" value="if choice == &quot;y&quot;" style="rhombus;whiteSpace=wrap;html=1;" vertex="1" parent="1">
          <mxGeometry x="370" y="220" width="80" height="80" as="geometry" />
        </mxCell>
        <mxCell id="J2l5HdpZWElJUbfmTTPZ-12" value="" style="edgeStyle=orthogonalEdgeStyle;rounded=0;orthogonalLoop=1;jettySize=auto;html=1;" edge="1" parent="1" source="J2l5HdpZWElJUbfmTTPZ-10" target="J2l5HdpZWElJUbfmTTPZ-11">
          <mxGeometry relative="1" as="geometry" />
        </mxCell>
        <mxCell id="J2l5HdpZWElJUbfmTTPZ-10" value="enter user and password" style="shape=parallelogram;perimeter=parallelogramPerimeter;whiteSpace=wrap;html=1;fixedSize=1;" vertex="1" parent="1">
          <mxGeometry x="350" y="340" width="120" height="60" as="geometry" />
        </mxCell>
        <mxCell id="J2l5HdpZWElJUbfmTTPZ-16" value="" style="edgeStyle=orthogonalEdgeStyle;rounded=0;orthogonalLoop=1;jettySize=auto;html=1;" edge="1" parent="1" source="J2l5HdpZWElJUbfmTTPZ-11" target="J2l5HdpZWElJUbfmTTPZ-15">
          <mxGeometry relative="1" as="geometry" />
        </mxCell>
        <mxCell id="J2l5HdpZWElJUbfmTTPZ-11" value="user + password is correct" style="rhombus;whiteSpace=wrap;html=1;" vertex="1" parent="1">
          <mxGeometry x="370" y="430" width="80" height="80" as="geometry" />
        </mxCell>
        <mxCell id="J2l5HdpZWElJUbfmTTPZ-13" value="create account" style="shape=process;whiteSpace=wrap;html=1;backgroundOutline=1;" vertex="1" parent="1">
          <mxGeometry x="510" y="230" width="120" height="60" as="geometry" />
        </mxCell>
        <mxCell id="J2l5HdpZWElJUbfmTTPZ-19" value="" style="edgeStyle=orthogonalEdgeStyle;rounded=0;orthogonalLoop=1;jettySize=auto;html=1;" edge="1" parent="1" source="J2l5HdpZWElJUbfmTTPZ-15" target="J2l5HdpZWElJUbfmTTPZ-17">
          <mxGeometry relative="1" as="geometry" />
        </mxCell>
        <mxCell id="J2l5HdpZWElJUbfmTTPZ-15" value="display menu" style="shape=parallelogram;perimeter=parallelogramPerimeter;whiteSpace=wrap;html=1;fixedSize=1;" vertex="1" parent="1">
          <mxGeometry x="350" y="540" width="120" height="60" as="geometry" />
        </mxCell>
        <mxCell id="J2l5HdpZWElJUbfmTTPZ-24" style="edgeStyle=orthogonalEdgeStyle;rounded=0;orthogonalLoop=1;jettySize=auto;html=1;exitX=0.5;exitY=1;exitDx=0;exitDy=0;entryX=0.5;entryY=0;entryDx=0;entryDy=0;" edge="1" parent="1" source="J2l5HdpZWElJUbfmTTPZ-17" target="J2l5HdpZWElJUbfmTTPZ-20">
          <mxGeometry relative="1" as="geometry" />
        </mxCell>
        <mxCell id="J2l5HdpZWElJUbfmTTPZ-33" style="edgeStyle=orthogonalEdgeStyle;rounded=0;orthogonalLoop=1;jettySize=auto;html=1;exitX=0;exitY=0.5;exitDx=0;exitDy=0;entryX=1;entryY=0.5;entryDx=0;entryDy=0;" edge="1" parent="1" source="J2l5HdpZWElJUbfmTTPZ-17" target="J2l5HdpZWElJUbfmTTPZ-28">
          <mxGeometry relative="1" as="geometry" />
        </mxCell>
        <mxCell id="J2l5HdpZWElJUbfmTTPZ-17" value="choice register" style="rhombus;whiteSpace=wrap;html=1;" vertex="1" parent="1">
          <mxGeometry x="370" y="620" width="80" height="80" as="geometry" />
        </mxCell>
        <mxCell id="J2l5HdpZWElJUbfmTTPZ-25" style="edgeStyle=orthogonalEdgeStyle;rounded=0;orthogonalLoop=1;jettySize=auto;html=1;exitX=0.5;exitY=1;exitDx=0;exitDy=0;entryX=0.5;entryY=0;entryDx=0;entryDy=0;" edge="1" parent="1" source="J2l5HdpZWElJUbfmTTPZ-20" target="J2l5HdpZWElJUbfmTTPZ-21">
          <mxGeometry relative="1" as="geometry" />
        </mxCell>
        <mxCell id="J2l5HdpZWElJUbfmTTPZ-34" style="edgeStyle=orthogonalEdgeStyle;rounded=0;orthogonalLoop=1;jettySize=auto;html=1;exitX=0;exitY=0.5;exitDx=0;exitDy=0;entryX=1;entryY=0.5;entryDx=0;entryDy=0;" edge="1" parent="1" source="J2l5HdpZWElJUbfmTTPZ-20" target="J2l5HdpZWElJUbfmTTPZ-29">
          <mxGeometry relative="1" as="geometry" />
        </mxCell>
        <mxCell id="J2l5HdpZWElJUbfmTTPZ-20" value="choice login" style="rhombus;whiteSpace=wrap;html=1;" vertex="1" parent="1">
          <mxGeometry x="370" y="720" width="80" height="80" as="geometry" />
        </mxCell>
        <mxCell id="J2l5HdpZWElJUbfmTTPZ-26" style="edgeStyle=orthogonalEdgeStyle;rounded=0;orthogonalLoop=1;jettySize=auto;html=1;exitX=0.5;exitY=1;exitDx=0;exitDy=0;entryX=0.5;entryY=0;entryDx=0;entryDy=0;" edge="1" parent="1" source="J2l5HdpZWElJUbfmTTPZ-21" target="J2l5HdpZWElJUbfmTTPZ-22">
          <mxGeometry relative="1" as="geometry" />
        </mxCell>
        <mxCell id="J2l5HdpZWElJUbfmTTPZ-35" style="edgeStyle=orthogonalEdgeStyle;rounded=0;orthogonalLoop=1;jettySize=auto;html=1;exitX=0;exitY=0.5;exitDx=0;exitDy=0;entryX=1;entryY=0.5;entryDx=0;entryDy=0;" edge="1" parent="1" source="J2l5HdpZWElJUbfmTTPZ-21" target="J2l5HdpZWElJUbfmTTPZ-30">
          <mxGeometry relative="1" as="geometry" />
        </mxCell>
        <mxCell id="J2l5HdpZWElJUbfmTTPZ-21" value="choice search" style="rhombus;whiteSpace=wrap;html=1;" vertex="1" parent="1">
          <mxGeometry x="370" y="840" width="80" height="80" as="geometry" />
        </mxCell>
        <mxCell id="J2l5HdpZWElJUbfmTTPZ-27" style="edgeStyle=orthogonalEdgeStyle;rounded=0;orthogonalLoop=1;jettySize=auto;html=1;exitX=0.5;exitY=1;exitDx=0;exitDy=0;" edge="1" parent="1" source="J2l5HdpZWElJUbfmTTPZ-22" target="J2l5HdpZWElJUbfmTTPZ-23">
          <mxGeometry relative="1" as="geometry" />
        </mxCell>
        <mxCell id="J2l5HdpZWElJUbfmTTPZ-36" style="edgeStyle=orthogonalEdgeStyle;rounded=0;orthogonalLoop=1;jettySize=auto;html=1;exitX=0;exitY=0.5;exitDx=0;exitDy=0;entryX=1;entryY=0.5;entryDx=0;entryDy=0;" edge="1" parent="1" source="J2l5HdpZWElJUbfmTTPZ-22" target="J2l5HdpZWElJUbfmTTPZ-31">
          <mxGeometry relative="1" as="geometry" />
        </mxCell>
        <mxCell id="J2l5HdpZWElJUbfmTTPZ-22" value="choice playlist creation" style="rhombus;whiteSpace=wrap;html=1;" vertex="1" parent="1">
          <mxGeometry x="370" y="960" width="80" height="80" as="geometry" />
        </mxCell>
        <mxCell id="J2l5HdpZWElJUbfmTTPZ-37" style="edgeStyle=orthogonalEdgeStyle;rounded=0;orthogonalLoop=1;jettySize=auto;html=1;exitX=0;exitY=0.5;exitDx=0;exitDy=0;entryX=1;entryY=0.5;entryDx=0;entryDy=0;" edge="1" parent="1" source="J2l5HdpZWElJUbfmTTPZ-23" target="J2l5HdpZWElJUbfmTTPZ-32">
          <mxGeometry relative="1" as="geometry" />
        </mxCell>
        <mxCell id="J2l5HdpZWElJUbfmTTPZ-23" value="choice display songs" style="rhombus;whiteSpace=wrap;html=1;" vertex="1" parent="1">
          <mxGeometry x="370" y="1070" width="80" height="80" as="geometry" />
        </mxCell>
        <mxCell id="J2l5HdpZWElJUbfmTTPZ-28" value="register" style="shape=process;whiteSpace=wrap;html=1;backgroundOutline=1;" vertex="1" parent="1">
          <mxGeometry x="200" y="630" width="120" height="60" as="geometry" />
        </mxCell>
        <mxCell id="J2l5HdpZWElJUbfmTTPZ-29" value="login" style="shape=process;whiteSpace=wrap;html=1;backgroundOutline=1;" vertex="1" parent="1">
          <mxGeometry x="200" y="730" width="120" height="60" as="geometry" />
        </mxCell>
        <mxCell id="J2l5HdpZWElJUbfmTTPZ-30" value="search song" style="shape=process;whiteSpace=wrap;html=1;backgroundOutline=1;" vertex="1" parent="1">
          <mxGeometry x="200" y="850" width="120" height="60" as="geometry" />
        </mxCell>
        <mxCell id="J2l5HdpZWElJUbfmTTPZ-31" value="play list creator" style="shape=process;whiteSpace=wrap;html=1;backgroundOutline=1;" vertex="1" parent="1">
          <mxGeometry x="200" y="970" width="120" height="60" as="geometry" />
        </mxCell>
        <mxCell id="J2l5HdpZWElJUbfmTTPZ-32" value="display songs" style="shape=process;whiteSpace=wrap;html=1;backgroundOutline=1;" vertex="1" parent="1">
          <mxGeometry x="200" y="1080" width="120" height="60" as="geometry" />
        </mxCell>
      </root>
    </mxGraphModel>
  </diagram>
</mxfile>
